<?xml version="1.0" standalone="no"?>
<!DOCTYPE svg PUBLIC "-//W3C//DTD SVG 20010904//EN"
 "http://www.w3.org/TR/2001/REC-SVG-20010904/DTD/svg10.dtd">
<svg version="1.0" xmlns="http://www.w3.org/2000/svg"
 width="3136.000000pt" height="3136.000000pt" viewBox="0 0 3136.000000 3136.000000"
 preserveAspectRatio="xMidYMid meet">
<metadata>
Created by potrace 1.14, written by Peter Selinger 2001-2017
</metadata>
<g transform="translate(0.000000,3136.000000) scale(0.100000,-0.100000)"
fill="#000000" stroke="none">
<path d="M317 20468 c-2 -7 0 -27 3 -45 4 -18 5 -34 3 -37 -8 -8 -9 -166 -2
-166 4 0 3 -16 -1 -35 -4 -19 -4 -37 0 -40 4 -3 4 -20 0 -39 -4 -19 -4 -40 0
-47 5 -7 5 -22 0 -33 -4 -11 -4 -33 0 -47 4 -15 4 -32 0 -40 -5 -7 -6 -17 -4
-21 7 -11 9 -127 2 -133 -3 -4 -2 -22 2 -41 4 -19 4 -36 0 -39 -4 -3 -4 -21 0
-40 4 -19 4 -37 0 -40 -4 -3 -4 -21 0 -40 4 -19 5 -37 1 -40 -7 -4 -4 -90 4
-112 2 -7 1 -13 -3 -13 -4 0 -7 -36 -7 -80 0 -44 3 -80 6 -80 4 0 3 -15 0 -32
-4 -18 -4 -50 0 -70 3 -21 4 -38 0 -38 -3 0 -6 -36 -6 -80 0 -44 2 -80 5 -80
6 0 3 -119 -4 -137 -3 -7 -1 -15 3 -18 5 -3 5 -21 1 -40 -4 -19 -4 -37 0 -40
4 -3 4 -21 0 -40 -4 -20 -4 -38 1 -41 5 -3 7 -10 3 -15 -3 -6 -6 -37 -5 -69 0
-55 -1 -59 -34 -81 -19 -13 -38 -32 -41 -42 -3 -9 -9 -15 -13 -12 -5 2 -14
-15 -22 -38 -20 -60 -23 -5225 -4 -5274 8 -17 12 -33 10 -35 -4 -4 29 -38 87
-92 23 -20 26 -29 19 -48 -4 -13 -5 -32 -1 -43 4 -11 5 -24 3 -28 -7 -12 -7
-133 0 -144 3 -5 2 -15 -2 -22 -5 -7 -5 -28 -1 -47 4 -19 4 -36 0 -39 -4 -2
-4 -23 0 -45 4 -22 5 -40 1 -40 -7 0 -6 -58 1 -66 3 -3 2 -20 -2 -38 -4 -19
-4 -40 0 -47 5 -7 5 -22 0 -33 -4 -11 -4 -33 0 -47 4 -15 4 -32 0 -40 -5 -7
-6 -17 -4 -21 7 -11 9 -127 2 -133 -3 -4 -2 -22 2 -41 4 -19 4 -36 0 -39 -4
-3 -4 -21 0 -40 4 -19 4 -37 0 -40 -4 -3 -4 -21 0 -40 4 -19 5 -37 1 -40 -7
-4 -4 -90 4 -112 2 -7 1 -13 -3 -13 -4 0 -7 -36 -7 -80 0 -44 3 -80 6 -80 4 0
3 -15 0 -32 -4 -18 -4 -50 0 -70 3 -21 4 -38 0 -38 -3 0 -6 -36 -6 -80 0 -44
2 -80 5 -80 6 0 3 -119 -4 -137 -3 -7 -1 -15 3 -18 5 -3 5 -21 1 -40 -4 -19
-4 -37 0 -40 4 -3 4 -21 0 -40 -4 -19 -4 -37 0 -40 4 -3 4 -20 0 -39 -4 -19
-5 -37 -2 -40 3 -4 6989 -6 15524 -6 l15518 0 0 4800 0 4800 -15519 0 c-12407
0 -15520 -3 -15524 -12z"/>
</g>
</svg>
