<svg width="30" height="30" fill="none" xmlns="http://www.w3.org/2000/svg"><g opacity=".8" fill="#2B3541"><path d="M4.395 30h21.21A4.4 4.4 0 0 0 30 25.605V4.395A4.4 4.4 0 0 0 25.605 0H4.395A4.4 4.4 0 0 0 0 4.395v21.21A4.4 4.4 0 0 0 4.395 30ZM1.758 4.395a2.64 2.64 0 0 1 2.637-2.637h21.21a2.64 2.64 0 0 1 2.637 2.637v21.21a2.64 2.64 0 0 1-2.637 2.637H4.395a2.64 2.64 0 0 1-2.637-2.637V4.395Z"/><path d="M15 22.91c4.362 0 7.91-3.548 7.91-7.91S19.362 7.09 15 7.09 7.09 10.638 7.09 15s3.548 7.91 7.91 7.91Zm0-14.062A6.16 6.16 0 0 1 21.152 15 6.16 6.16 0 0 1 15 21.152 6.16 6.16 0 0 1 8.848 15 6.16 6.16 0 0 1 15 8.848ZM23.79 8.848a2.64 2.64 0 0 0 2.636-2.637 2.64 2.64 0 0 0-2.637-2.637 2.64 2.64 0 0 0-2.637 2.637 2.64 2.64 0 0 0 2.637 2.637Zm0-3.516a.88.88 0 0 1 0 1.758.88.88 0 0 1 0-1.758Z"/></g></svg>